<mxfile host="app.diagrams.net" modified="2024-04-10T06:03:00.259Z" agent="Mozilla/5.0 (Windows NT 10.0; Win64; x64) AppleWebKit/537.36 (KHTML, like Gecko) Chrome/123.0.0.0 Safari/537.36" etag="qejqZuXwiSMUM0NUWgnh" version="24.2.3" type="device">
  <diagram name="Página-1" id="iEOvd_mET68QCeT-6-60">
    <mxGraphModel dx="3217" dy="1243" grid="1" gridSize="10" guides="1" tooltips="1" connect="1" arrows="1" fold="1" page="1" pageScale="1" pageWidth="827" pageHeight="1169" math="0" shadow="0">
      <root>
        <mxCell id="0" />
        <mxCell id="1" parent="0" />
        <mxCell id="9JJsFDRCctAeS7KG6Eez-1" value="Funcionário" style="shape=umlActor;verticalLabelPosition=bottom;verticalAlign=top;html=1;outlineConnect=0;" vertex="1" parent="1">
          <mxGeometry x="125" y="180" width="30" height="60" as="geometry" />
        </mxCell>
        <mxCell id="9JJsFDRCctAeS7KG6Eez-3" value="Visitante&lt;div&gt;&lt;br&gt;&lt;/div&gt;" style="shape=umlActor;verticalLabelPosition=bottom;verticalAlign=top;html=1;outlineConnect=0;" vertex="1" parent="1">
          <mxGeometry x="235" y="460" width="30" height="60" as="geometry" />
        </mxCell>
        <mxCell id="9JJsFDRCctAeS7KG6Eez-4" value="Usuário Cadastrado" style="shape=umlActor;verticalLabelPosition=bottom;verticalAlign=top;html=1;outlineConnect=0;" vertex="1" parent="1">
          <mxGeometry x="20" y="460" width="30" height="60" as="geometry" />
        </mxCell>
        <mxCell id="9JJsFDRCctAeS7KG6Eez-9" style="edgeStyle=orthogonalEdgeStyle;rounded=0;orthogonalLoop=1;jettySize=auto;html=1;exitX=0.5;exitY=0.5;exitDx=0;exitDy=0;exitPerimeter=0;entryX=0.5;entryY=0.5;entryDx=0;entryDy=0;entryPerimeter=0;" edge="1" parent="1" source="9JJsFDRCctAeS7KG6Eez-4" target="9JJsFDRCctAeS7KG6Eez-3">
          <mxGeometry relative="1" as="geometry" />
        </mxCell>
        <mxCell id="9JJsFDRCctAeS7KG6Eez-10" value="Fazer Login" style="ellipse;whiteSpace=wrap;html=1;" vertex="1" parent="1">
          <mxGeometry x="190" y="320" width="120" height="80" as="geometry" />
        </mxCell>
        <mxCell id="9JJsFDRCctAeS7KG6Eez-11" value="Autenticar" style="ellipse;whiteSpace=wrap;html=1;" vertex="1" parent="1">
          <mxGeometry x="450" y="250" width="120" height="80" as="geometry" />
        </mxCell>
        <mxCell id="9JJsFDRCctAeS7KG6Eez-12" value="Recuperar senha" style="ellipse;whiteSpace=wrap;html=1;" vertex="1" parent="1">
          <mxGeometry x="450" y="400" width="120" height="80" as="geometry" />
        </mxCell>
        <mxCell id="9JJsFDRCctAeS7KG6Eez-13" value="Fazer logout" style="ellipse;whiteSpace=wrap;html=1;" vertex="1" parent="1">
          <mxGeometry x="-25" y="320" width="120" height="80" as="geometry" />
        </mxCell>
        <mxCell id="9JJsFDRCctAeS7KG6Eez-14" value="Gerenciar dados" style="ellipse;whiteSpace=wrap;html=1;" vertex="1" parent="1">
          <mxGeometry x="80" y="20" width="120" height="80" as="geometry" />
        </mxCell>
        <mxCell id="9JJsFDRCctAeS7KG6Eez-15" value="Gerenciar produtos" style="ellipse;whiteSpace=wrap;html=1;" vertex="1" parent="1">
          <mxGeometry x="-250" y="20" width="120" height="80" as="geometry" />
        </mxCell>
        <mxCell id="9JJsFDRCctAeS7KG6Eez-16" value="Gerenciar frete" style="ellipse;whiteSpace=wrap;html=1;" vertex="1" parent="1">
          <mxGeometry x="-250" y="120" width="120" height="80" as="geometry" />
        </mxCell>
        <mxCell id="9JJsFDRCctAeS7KG6Eez-17" value="Gerenciar formas de pagamentos" style="ellipse;whiteSpace=wrap;html=1;" vertex="1" parent="1">
          <mxGeometry x="-250" y="220" width="120" height="80" as="geometry" />
        </mxCell>
        <mxCell id="9JJsFDRCctAeS7KG6Eez-18" value="Gerar relatórios" style="ellipse;whiteSpace=wrap;html=1;" vertex="1" parent="1">
          <mxGeometry x="310" y="20" width="120" height="80" as="geometry" />
        </mxCell>
        <mxCell id="9JJsFDRCctAeS7KG6Eez-19" value="Gerenciar cupons" style="ellipse;whiteSpace=wrap;html=1;" vertex="1" parent="1">
          <mxGeometry x="-250" y="320" width="120" height="80" as="geometry" />
        </mxCell>
        <mxCell id="9JJsFDRCctAeS7KG6Eez-20" value="Gerenciar pedidos" style="ellipse;whiteSpace=wrap;html=1;" vertex="1" parent="1">
          <mxGeometry x="310" y="160" width="120" height="80" as="geometry" />
        </mxCell>
        <mxCell id="9JJsFDRCctAeS7KG6Eez-22" value="Extends" style="endArrow=open;endSize=12;dashed=1;html=1;rounded=0;exitX=0;exitY=0.5;exitDx=0;exitDy=0;entryX=1;entryY=1;entryDx=0;entryDy=0;" edge="1" parent="1" source="9JJsFDRCctAeS7KG6Eez-12" target="9JJsFDRCctAeS7KG6Eez-10">
          <mxGeometry width="160" relative="1" as="geometry">
            <mxPoint x="130" y="380" as="sourcePoint" />
            <mxPoint x="290" y="380" as="targetPoint" />
          </mxGeometry>
        </mxCell>
        <mxCell id="9JJsFDRCctAeS7KG6Eez-23" value="Extends" style="endArrow=open;endSize=12;dashed=1;html=1;rounded=0;exitX=0;exitY=0.5;exitDx=0;exitDy=0;entryX=1;entryY=0;entryDx=0;entryDy=0;" edge="1" parent="1" source="9JJsFDRCctAeS7KG6Eez-11" target="9JJsFDRCctAeS7KG6Eez-10">
          <mxGeometry width="160" relative="1" as="geometry">
            <mxPoint x="460" y="372" as="sourcePoint" />
            <mxPoint x="310" y="320" as="targetPoint" />
          </mxGeometry>
        </mxCell>
        <mxCell id="9JJsFDRCctAeS7KG6Eez-24" value="" style="endArrow=none;html=1;rounded=0;exitX=0.5;exitY=0;exitDx=0;exitDy=0;exitPerimeter=0;entryX=0.5;entryY=1;entryDx=0;entryDy=0;" edge="1" parent="1" source="9JJsFDRCctAeS7KG6Eez-3" target="9JJsFDRCctAeS7KG6Eez-10">
          <mxGeometry width="50" height="50" relative="1" as="geometry">
            <mxPoint x="180" y="410" as="sourcePoint" />
            <mxPoint x="230" y="360" as="targetPoint" />
          </mxGeometry>
        </mxCell>
        <mxCell id="9JJsFDRCctAeS7KG6Eez-27" value="" style="endArrow=none;html=1;rounded=0;exitX=1;exitY=1;exitDx=0;exitDy=0;exitPerimeter=0;entryX=0.5;entryY=0;entryDx=0;entryDy=0;" edge="1" parent="1" source="9JJsFDRCctAeS7KG6Eez-1" target="9JJsFDRCctAeS7KG6Eez-10">
          <mxGeometry width="50" height="50" relative="1" as="geometry">
            <mxPoint x="180" y="410" as="sourcePoint" />
            <mxPoint x="230" y="360" as="targetPoint" />
          </mxGeometry>
        </mxCell>
        <mxCell id="9JJsFDRCctAeS7KG6Eez-28" value="" style="endArrow=none;html=1;rounded=0;entryX=0;entryY=1;entryDx=0;entryDy=0;entryPerimeter=0;exitX=0.5;exitY=0;exitDx=0;exitDy=0;" edge="1" parent="1" source="9JJsFDRCctAeS7KG6Eez-13" target="9JJsFDRCctAeS7KG6Eez-1">
          <mxGeometry width="50" height="50" relative="1" as="geometry">
            <mxPoint x="180" y="410" as="sourcePoint" />
            <mxPoint x="230" y="360" as="targetPoint" />
          </mxGeometry>
        </mxCell>
        <mxCell id="9JJsFDRCctAeS7KG6Eez-29" value="" style="endArrow=none;html=1;rounded=0;exitX=0.5;exitY=0;exitDx=0;exitDy=0;exitPerimeter=0;entryX=0.5;entryY=1;entryDx=0;entryDy=0;" edge="1" parent="1" source="9JJsFDRCctAeS7KG6Eez-4" target="9JJsFDRCctAeS7KG6Eez-13">
          <mxGeometry width="50" height="50" relative="1" as="geometry">
            <mxPoint x="180" y="410" as="sourcePoint" />
            <mxPoint x="230" y="360" as="targetPoint" />
          </mxGeometry>
        </mxCell>
        <mxCell id="9JJsFDRCctAeS7KG6Eez-32" value="" style="endArrow=none;html=1;rounded=0;entryX=0.5;entryY=1;entryDx=0;entryDy=0;exitX=0.5;exitY=0;exitDx=0;exitDy=0;exitPerimeter=0;" edge="1" parent="1" source="9JJsFDRCctAeS7KG6Eez-1" target="9JJsFDRCctAeS7KG6Eez-14">
          <mxGeometry width="50" height="50" relative="1" as="geometry">
            <mxPoint x="95" y="160" as="sourcePoint" />
            <mxPoint x="145" y="110" as="targetPoint" />
          </mxGeometry>
        </mxCell>
        <mxCell id="9JJsFDRCctAeS7KG6Eez-33" value="" style="endArrow=none;html=1;rounded=0;entryX=0;entryY=0.5;entryDx=0;entryDy=0;exitX=0.75;exitY=0.1;exitDx=0;exitDy=0;exitPerimeter=0;" edge="1" parent="1" source="9JJsFDRCctAeS7KG6Eez-1" target="9JJsFDRCctAeS7KG6Eez-18">
          <mxGeometry width="50" height="50" relative="1" as="geometry">
            <mxPoint x="180" y="310" as="sourcePoint" />
            <mxPoint x="230" y="260" as="targetPoint" />
          </mxGeometry>
        </mxCell>
        <mxCell id="9JJsFDRCctAeS7KG6Eez-34" value="" style="endArrow=none;html=1;rounded=0;entryX=0;entryY=0.5;entryDx=0;entryDy=0;exitX=1;exitY=0.3333333333333333;exitDx=0;exitDy=0;exitPerimeter=0;" edge="1" parent="1" source="9JJsFDRCctAeS7KG6Eez-1" target="9JJsFDRCctAeS7KG6Eez-20">
          <mxGeometry width="50" height="50" relative="1" as="geometry">
            <mxPoint x="180" y="310" as="sourcePoint" />
            <mxPoint x="230" y="260" as="targetPoint" />
          </mxGeometry>
        </mxCell>
        <mxCell id="9JJsFDRCctAeS7KG6Eez-35" value="Extends" style="endArrow=open;endSize=12;dashed=1;html=1;rounded=0;exitX=1;exitY=0.5;exitDx=0;exitDy=0;entryX=0.017;entryY=0.638;entryDx=0;entryDy=0;entryPerimeter=0;" edge="1" parent="1" source="9JJsFDRCctAeS7KG6Eez-16" target="9JJsFDRCctAeS7KG6Eez-14">
          <mxGeometry width="160" relative="1" as="geometry">
            <mxPoint x="28" y="90" as="sourcePoint" />
            <mxPoint x="-130" y="132" as="targetPoint" />
          </mxGeometry>
        </mxCell>
        <mxCell id="9JJsFDRCctAeS7KG6Eez-36" value="Extends" style="endArrow=open;endSize=12;dashed=1;html=1;rounded=0;exitX=1;exitY=0.5;exitDx=0;exitDy=0;entryX=0;entryY=0.5;entryDx=0;entryDy=0;" edge="1" parent="1" source="9JJsFDRCctAeS7KG6Eez-15" target="9JJsFDRCctAeS7KG6Eez-14">
          <mxGeometry width="160" relative="1" as="geometry">
            <mxPoint x="8" y="70" as="sourcePoint" />
            <mxPoint x="-150" y="112" as="targetPoint" />
          </mxGeometry>
        </mxCell>
        <mxCell id="9JJsFDRCctAeS7KG6Eez-37" value="Extends" style="endArrow=open;endSize=12;dashed=1;html=1;rounded=0;exitX=1;exitY=0.5;exitDx=0;exitDy=0;entryX=0.067;entryY=0.738;entryDx=0;entryDy=0;entryPerimeter=0;" edge="1" parent="1" source="9JJsFDRCctAeS7KG6Eez-17" target="9JJsFDRCctAeS7KG6Eez-14">
          <mxGeometry width="160" relative="1" as="geometry">
            <mxPoint x="38" y="120" as="sourcePoint" />
            <mxPoint x="-120" y="162" as="targetPoint" />
          </mxGeometry>
        </mxCell>
        <mxCell id="9JJsFDRCctAeS7KG6Eez-38" value="Extends" style="endArrow=open;endSize=12;dashed=1;html=1;rounded=0;exitX=1;exitY=0.5;exitDx=0;exitDy=0;entryX=0;entryY=1;entryDx=0;entryDy=0;" edge="1" parent="1" source="9JJsFDRCctAeS7KG6Eez-19" target="9JJsFDRCctAeS7KG6Eez-14">
          <mxGeometry width="160" relative="1" as="geometry">
            <mxPoint x="88" y="158" as="sourcePoint" />
            <mxPoint x="-70" y="200" as="targetPoint" />
          </mxGeometry>
        </mxCell>
        <mxCell id="9JJsFDRCctAeS7KG6Eez-39" value="Cadastrar endereço" style="ellipse;whiteSpace=wrap;html=1;" vertex="1" parent="1">
          <mxGeometry x="-480" y="450" width="120" height="80" as="geometry" />
        </mxCell>
        <mxCell id="9JJsFDRCctAeS7KG6Eez-40" value="Filtrar produtos" style="ellipse;whiteSpace=wrap;html=1;" vertex="1" parent="1">
          <mxGeometry x="190" y="600" width="120" height="80" as="geometry" />
        </mxCell>
        <mxCell id="9JJsFDRCctAeS7KG6Eez-41" value="Gerenciar cadastro" style="ellipse;whiteSpace=wrap;html=1;" vertex="1" parent="1">
          <mxGeometry x="-250" y="450" width="120" height="80" as="geometry" />
        </mxCell>
        <mxCell id="9JJsFDRCctAeS7KG6Eez-43" value="Pesquisar produtos" style="ellipse;whiteSpace=wrap;html=1;" vertex="1" parent="1">
          <mxGeometry x="340" y="600" width="120" height="80" as="geometry" />
        </mxCell>
        <mxCell id="9JJsFDRCctAeS7KG6Eez-44" value="Visualizar produtos" style="ellipse;whiteSpace=wrap;html=1;" vertex="1" parent="1">
          <mxGeometry x="190" y="780" width="120" height="80" as="geometry" />
        </mxCell>
        <mxCell id="9JJsFDRCctAeS7KG6Eez-45" value="Adicionar produto à sacola" style="ellipse;whiteSpace=wrap;html=1;" vertex="1" parent="1">
          <mxGeometry x="-25" y="600" width="120" height="80" as="geometry" />
        </mxCell>
        <mxCell id="9JJsFDRCctAeS7KG6Eez-46" value="Cancelar produto" style="ellipse;whiteSpace=wrap;html=1;" vertex="1" parent="1">
          <mxGeometry x="-250" y="600" width="120" height="80" as="geometry" />
        </mxCell>
        <mxCell id="9JJsFDRCctAeS7KG6Eez-47" value="Concluir compra" style="ellipse;whiteSpace=wrap;html=1;" vertex="1" parent="1">
          <mxGeometry x="-25" y="780" width="120" height="80" as="geometry" />
        </mxCell>
        <mxCell id="9JJsFDRCctAeS7KG6Eez-48" value="Informar endereço" style="ellipse;whiteSpace=wrap;html=1;" vertex="1" parent="1">
          <mxGeometry x="-250" y="700" width="120" height="80" as="geometry" />
        </mxCell>
        <mxCell id="9JJsFDRCctAeS7KG6Eez-49" value="Esolher forma de pagamento" style="ellipse;whiteSpace=wrap;html=1;" vertex="1" parent="1">
          <mxGeometry x="-250" y="800" width="120" height="80" as="geometry" />
        </mxCell>
        <mxCell id="9JJsFDRCctAeS7KG6Eez-50" value="Enviar pedido" style="ellipse;whiteSpace=wrap;html=1;" vertex="1" parent="1">
          <mxGeometry x="-25" y="950" width="120" height="80" as="geometry" />
        </mxCell>
        <mxCell id="9JJsFDRCctAeS7KG6Eez-51" value="Visualiar status do pedido" style="ellipse;whiteSpace=wrap;html=1;" vertex="1" parent="1">
          <mxGeometry x="-340" y="900" width="120" height="80" as="geometry" />
        </mxCell>
        <mxCell id="9JJsFDRCctAeS7KG6Eez-52" value="Cancelar pedido" style="ellipse;whiteSpace=wrap;html=1;" vertex="1" parent="1">
          <mxGeometry x="-480" y="980" width="120" height="80" as="geometry" />
        </mxCell>
        <mxCell id="9JJsFDRCctAeS7KG6Eez-53" value="Avaliar pedido" style="ellipse;whiteSpace=wrap;html=1;" vertex="1" parent="1">
          <mxGeometry x="-720" y="700" width="120" height="80" as="geometry" />
        </mxCell>
        <mxCell id="9JJsFDRCctAeS7KG6Eez-54" value="Consultar frete" style="ellipse;whiteSpace=wrap;html=1;" vertex="1" parent="1">
          <mxGeometry x="370" y="490" width="120" height="80" as="geometry" />
        </mxCell>
        <mxCell id="9JJsFDRCctAeS7KG6Eez-55" value="Visualizar histórico de compras" style="ellipse;whiteSpace=wrap;html=1;" vertex="1" parent="1">
          <mxGeometry x="-480" y="600" width="120" height="80" as="geometry" />
        </mxCell>
        <mxCell id="9JJsFDRCctAeS7KG6Eez-56" value="Devolver produto" style="ellipse;whiteSpace=wrap;html=1;" vertex="1" parent="1">
          <mxGeometry x="-720" y="600" width="120" height="80" as="geometry" />
        </mxCell>
        <mxCell id="9JJsFDRCctAeS7KG6Eez-57" value="Visualizar imagem 3D" style="ellipse;whiteSpace=wrap;html=1;" vertex="1" parent="1">
          <mxGeometry x="450" y="780" width="120" height="80" as="geometry" />
        </mxCell>
        <mxCell id="9JJsFDRCctAeS7KG6Eez-59" value="" style="endArrow=none;html=1;rounded=0;entryX=0;entryY=0;entryDx=0;entryDy=0;exitX=1;exitY=0.3333333333333333;exitDx=0;exitDy=0;exitPerimeter=0;" edge="1" parent="1" source="9JJsFDRCctAeS7KG6Eez-3" target="9JJsFDRCctAeS7KG6Eez-54">
          <mxGeometry width="50" height="50" relative="1" as="geometry">
            <mxPoint x="110" y="560" as="sourcePoint" />
            <mxPoint x="160" y="510" as="targetPoint" />
          </mxGeometry>
        </mxCell>
        <mxCell id="9JJsFDRCctAeS7KG6Eez-60" value="" style="endArrow=none;html=1;rounded=0;entryX=1;entryY=1;entryDx=0;entryDy=0;entryPerimeter=0;exitX=0;exitY=0;exitDx=0;exitDy=0;" edge="1" parent="1" source="9JJsFDRCctAeS7KG6Eez-43" target="9JJsFDRCctAeS7KG6Eez-3">
          <mxGeometry width="50" height="50" relative="1" as="geometry">
            <mxPoint x="110" y="560" as="sourcePoint" />
            <mxPoint x="160" y="510" as="targetPoint" />
          </mxGeometry>
        </mxCell>
        <mxCell id="9JJsFDRCctAeS7KG6Eez-61" value="" style="endArrow=none;html=1;rounded=0;entryX=0.5;entryY=0.5;entryDx=0;entryDy=0;entryPerimeter=0;exitX=0.5;exitY=0;exitDx=0;exitDy=0;" edge="1" parent="1" source="9JJsFDRCctAeS7KG6Eez-40" target="9JJsFDRCctAeS7KG6Eez-3">
          <mxGeometry width="50" height="50" relative="1" as="geometry">
            <mxPoint x="190" y="610" as="sourcePoint" />
            <mxPoint x="240" y="560" as="targetPoint" />
          </mxGeometry>
        </mxCell>
        <mxCell id="9JJsFDRCctAeS7KG6Eez-62" value="Extends" style="endArrow=open;endSize=12;dashed=1;html=1;rounded=0;exitX=1;exitY=0;exitDx=0;exitDy=0;entryX=0.5;entryY=1;entryDx=0;entryDy=0;" edge="1" parent="1" source="9JJsFDRCctAeS7KG6Eez-44" target="9JJsFDRCctAeS7KG6Eez-43">
          <mxGeometry width="160" relative="1" as="geometry">
            <mxPoint x="618" y="732" as="sourcePoint" />
            <mxPoint x="460" y="680" as="targetPoint" />
          </mxGeometry>
        </mxCell>
        <mxCell id="9JJsFDRCctAeS7KG6Eez-63" value="Extends" style="endArrow=open;endSize=12;dashed=1;html=1;rounded=0;exitX=0.5;exitY=0;exitDx=0;exitDy=0;entryX=0.5;entryY=1;entryDx=0;entryDy=0;" edge="1" parent="1" source="9JJsFDRCctAeS7KG6Eez-44" target="9JJsFDRCctAeS7KG6Eez-40">
          <mxGeometry width="160" relative="1" as="geometry">
            <mxPoint x="378" y="782" as="sourcePoint" />
            <mxPoint x="220" y="730" as="targetPoint" />
          </mxGeometry>
        </mxCell>
        <mxCell id="9JJsFDRCctAeS7KG6Eez-64" value="Extends" style="endArrow=open;endSize=12;dashed=1;html=1;rounded=0;exitX=0;exitY=0.5;exitDx=0;exitDy=0;entryX=1;entryY=0.5;entryDx=0;entryDy=0;" edge="1" parent="1" source="9JJsFDRCctAeS7KG6Eez-57" target="9JJsFDRCctAeS7KG6Eez-44">
          <mxGeometry width="160" relative="1" as="geometry">
            <mxPoint x="438" y="832" as="sourcePoint" />
            <mxPoint x="280" y="780" as="targetPoint" />
          </mxGeometry>
        </mxCell>
        <mxCell id="9JJsFDRCctAeS7KG6Eez-65" value="" style="endArrow=none;html=1;rounded=0;entryX=0.5;entryY=0.5;entryDx=0;entryDy=0;entryPerimeter=0;exitX=0.5;exitY=0;exitDx=0;exitDy=0;" edge="1" parent="1" source="9JJsFDRCctAeS7KG6Eez-45" target="9JJsFDRCctAeS7KG6Eez-4">
          <mxGeometry width="50" height="50" relative="1" as="geometry">
            <mxPoint x="110" y="760" as="sourcePoint" />
            <mxPoint x="160" y="710" as="targetPoint" />
          </mxGeometry>
        </mxCell>
        <mxCell id="9JJsFDRCctAeS7KG6Eez-66" value="Extends" style="endArrow=open;endSize=12;dashed=1;html=1;rounded=0;exitX=1;exitY=0.5;exitDx=0;exitDy=0;entryX=0;entryY=0.5;entryDx=0;entryDy=0;" edge="1" parent="1" source="9JJsFDRCctAeS7KG6Eez-46" target="9JJsFDRCctAeS7KG6Eez-45">
          <mxGeometry width="160" relative="1" as="geometry">
            <mxPoint x="-10" y="700" as="sourcePoint" />
            <mxPoint x="-150" y="700" as="targetPoint" />
          </mxGeometry>
        </mxCell>
        <mxCell id="9JJsFDRCctAeS7KG6Eez-67" value="Extends" style="endArrow=open;endSize=12;dashed=1;html=1;rounded=0;exitX=0.5;exitY=0;exitDx=0;exitDy=0;entryX=0.5;entryY=1;entryDx=0;entryDy=0;" edge="1" parent="1" source="9JJsFDRCctAeS7KG6Eez-47" target="9JJsFDRCctAeS7KG6Eez-45">
          <mxGeometry width="160" relative="1" as="geometry">
            <mxPoint x="-120" y="650" as="sourcePoint" />
            <mxPoint x="-15" y="650" as="targetPoint" />
          </mxGeometry>
        </mxCell>
        <mxCell id="9JJsFDRCctAeS7KG6Eez-69" value="" style="endArrow=none;html=1;rounded=0;entryX=0.5;entryY=0.5;entryDx=0;entryDy=0;entryPerimeter=0;exitX=1;exitY=0.5;exitDx=0;exitDy=0;" edge="1" parent="1" source="9JJsFDRCctAeS7KG6Eez-41" target="9JJsFDRCctAeS7KG6Eez-4">
          <mxGeometry width="50" height="50" relative="1" as="geometry">
            <mxPoint x="110" y="560" as="sourcePoint" />
            <mxPoint x="160" y="510" as="targetPoint" />
          </mxGeometry>
        </mxCell>
        <mxCell id="9JJsFDRCctAeS7KG6Eez-71" value="Extends" style="endArrow=open;endSize=12;dashed=1;html=1;rounded=0;entryX=0;entryY=0.5;entryDx=0;entryDy=0;exitX=1;exitY=0.5;exitDx=0;exitDy=0;" edge="1" parent="1" source="9JJsFDRCctAeS7KG6Eez-39" target="9JJsFDRCctAeS7KG6Eez-41">
          <mxGeometry width="160" relative="1" as="geometry">
            <mxPoint x="-340" y="530" as="sourcePoint" />
            <mxPoint x="-255" y="489" as="targetPoint" />
          </mxGeometry>
        </mxCell>
        <mxCell id="9JJsFDRCctAeS7KG6Eez-73" value="Extends" style="endArrow=open;endSize=12;dashed=1;html=1;rounded=0;exitX=0.5;exitY=0;exitDx=0;exitDy=0;entryX=0.5;entryY=1;entryDx=0;entryDy=0;" edge="1" parent="1" source="9JJsFDRCctAeS7KG6Eez-50" target="9JJsFDRCctAeS7KG6Eez-47">
          <mxGeometry width="160" relative="1" as="geometry">
            <mxPoint x="120" y="960" as="sourcePoint" />
            <mxPoint x="120" y="860" as="targetPoint" />
          </mxGeometry>
        </mxCell>
        <mxCell id="9JJsFDRCctAeS7KG6Eez-74" value="Extends" style="endArrow=open;endSize=12;dashed=1;html=1;rounded=0;exitX=1;exitY=1;exitDx=0;exitDy=0;entryX=0;entryY=0;entryDx=0;entryDy=0;" edge="1" parent="1" source="9JJsFDRCctAeS7KG6Eez-46" target="9JJsFDRCctAeS7KG6Eez-47">
          <mxGeometry width="160" relative="1" as="geometry">
            <mxPoint x="-120" y="650" as="sourcePoint" />
            <mxPoint x="-15" y="650" as="targetPoint" />
          </mxGeometry>
        </mxCell>
        <mxCell id="9JJsFDRCctAeS7KG6Eez-75" value="Include" style="endArrow=open;endSize=12;dashed=1;html=1;rounded=0;exitX=0.025;exitY=0.3;exitDx=0;exitDy=0;entryX=1;entryY=0.5;entryDx=0;entryDy=0;exitPerimeter=0;" edge="1" parent="1" source="9JJsFDRCctAeS7KG6Eez-47" target="9JJsFDRCctAeS7KG6Eez-48">
          <mxGeometry width="160" relative="1" as="geometry">
            <mxPoint x="100" y="874" as="sourcePoint" />
            <mxPoint x="211" y="940" as="targetPoint" />
          </mxGeometry>
        </mxCell>
        <mxCell id="9JJsFDRCctAeS7KG6Eez-76" value="Include" style="endArrow=open;endSize=12;dashed=1;html=1;rounded=0;entryX=1;entryY=0.5;entryDx=0;entryDy=0;exitX=0;exitY=0.5;exitDx=0;exitDy=0;" edge="1" parent="1" source="9JJsFDRCctAeS7KG6Eez-47" target="9JJsFDRCctAeS7KG6Eez-49">
          <mxGeometry width="160" relative="1" as="geometry">
            <mxPoint x="-70" y="880" as="sourcePoint" />
            <mxPoint x="-25" y="920" as="targetPoint" />
          </mxGeometry>
        </mxCell>
        <mxCell id="9JJsFDRCctAeS7KG6Eez-78" value="" style="endArrow=none;html=1;rounded=0;entryX=0;entryY=1;entryDx=0;entryDy=0;entryPerimeter=0;exitX=1;exitY=0;exitDx=0;exitDy=0;" edge="1" parent="1" source="9JJsFDRCctAeS7KG6Eez-55" target="9JJsFDRCctAeS7KG6Eez-4">
          <mxGeometry width="50" height="50" relative="1" as="geometry">
            <mxPoint x="-300" y="600" as="sourcePoint" />
            <mxPoint x="-250" y="550" as="targetPoint" />
          </mxGeometry>
        </mxCell>
        <mxCell id="9JJsFDRCctAeS7KG6Eez-81" value="Extends" style="endArrow=open;endSize=12;dashed=1;html=1;rounded=0;exitX=0.5;exitY=0;exitDx=0;exitDy=0;entryX=0.5;entryY=1;entryDx=0;entryDy=0;" edge="1" parent="1" source="9JJsFDRCctAeS7KG6Eez-52" target="9JJsFDRCctAeS7KG6Eez-55">
          <mxGeometry width="160" relative="1" as="geometry">
            <mxPoint x="-640" y="826" as="sourcePoint" />
            <mxPoint x="-499" y="950" as="targetPoint" />
          </mxGeometry>
        </mxCell>
        <mxCell id="9JJsFDRCctAeS7KG6Eez-82" value="Extends" style="endArrow=open;endSize=12;dashed=1;html=1;rounded=0;exitX=1;exitY=0.5;exitDx=0;exitDy=0;entryX=0;entryY=1;entryDx=0;entryDy=0;" edge="1" parent="1" source="9JJsFDRCctAeS7KG6Eez-52" target="9JJsFDRCctAeS7KG6Eez-50">
          <mxGeometry width="160" relative="1" as="geometry">
            <mxPoint x="-360" y="1050" as="sourcePoint" />
            <mxPoint x="-109" y="1112" as="targetPoint" />
          </mxGeometry>
        </mxCell>
        <mxCell id="9JJsFDRCctAeS7KG6Eez-85" value="Extends" style="endArrow=open;endSize=12;dashed=1;html=1;rounded=0;exitX=1;exitY=0.5;exitDx=0;exitDy=0;entryX=0;entryY=0.5;entryDx=0;entryDy=0;" edge="1" parent="1" source="9JJsFDRCctAeS7KG6Eez-56" target="9JJsFDRCctAeS7KG6Eez-55">
          <mxGeometry width="160" relative="1" as="geometry">
            <mxPoint x="-530" y="980" as="sourcePoint" />
            <mxPoint x="-530" y="680" as="targetPoint" />
          </mxGeometry>
        </mxCell>
        <mxCell id="9JJsFDRCctAeS7KG6Eez-86" value="Extends" style="endArrow=open;endSize=12;dashed=1;html=1;rounded=0;exitX=1;exitY=0.5;exitDx=0;exitDy=0;entryX=0;entryY=0.5;entryDx=0;entryDy=0;" edge="1" parent="1" source="9JJsFDRCctAeS7KG6Eez-51" target="9JJsFDRCctAeS7KG6Eez-50">
          <mxGeometry width="160" relative="1" as="geometry">
            <mxPoint x="-350" y="1030" as="sourcePoint" />
            <mxPoint x="3" y="1028" as="targetPoint" />
          </mxGeometry>
        </mxCell>
        <mxCell id="9JJsFDRCctAeS7KG6Eez-87" value="Extends" style="endArrow=open;endSize=12;dashed=1;html=1;rounded=0;exitX=0;exitY=0;exitDx=0;exitDy=0;entryX=1;entryY=1;entryDx=0;entryDy=0;" edge="1" parent="1" source="9JJsFDRCctAeS7KG6Eez-51" target="9JJsFDRCctAeS7KG6Eez-55">
          <mxGeometry width="160" relative="1" as="geometry">
            <mxPoint x="-350" y="1030" as="sourcePoint" />
            <mxPoint x="3" y="1028" as="targetPoint" />
          </mxGeometry>
        </mxCell>
        <mxCell id="9JJsFDRCctAeS7KG6Eez-88" value="Extends" style="endArrow=open;endSize=12;dashed=1;html=1;rounded=0;exitX=1;exitY=0.5;exitDx=0;exitDy=0;entryX=0;entryY=1;entryDx=0;entryDy=0;" edge="1" parent="1" source="9JJsFDRCctAeS7KG6Eez-53" target="9JJsFDRCctAeS7KG6Eez-55">
          <mxGeometry width="160" relative="1" as="geometry">
            <mxPoint x="-590" y="650" as="sourcePoint" />
            <mxPoint x="-470" y="650" as="targetPoint" />
          </mxGeometry>
        </mxCell>
        <mxCell id="9JJsFDRCctAeS7KG6Eez-89" value="Administrador" style="shape=umlActor;verticalLabelPosition=bottom;verticalAlign=top;html=1;outlineConnect=0;" vertex="1" parent="1">
          <mxGeometry x="-675" y="150" width="30" height="60" as="geometry" />
        </mxCell>
        <mxCell id="9JJsFDRCctAeS7KG6Eez-90" value="Gerenciar funcionário" style="ellipse;whiteSpace=wrap;html=1;" vertex="1" parent="1">
          <mxGeometry x="-500" y="130" width="120" height="80" as="geometry" />
        </mxCell>
        <mxCell id="9JJsFDRCctAeS7KG6Eez-91" value="" style="endArrow=none;html=1;rounded=0;exitX=1;exitY=0.3333333333333333;exitDx=0;exitDy=0;exitPerimeter=0;entryX=0;entryY=0.5;entryDx=0;entryDy=0;" edge="1" parent="1" source="9JJsFDRCctAeS7KG6Eez-89" target="9JJsFDRCctAeS7KG6Eez-90">
          <mxGeometry width="50" height="50" relative="1" as="geometry">
            <mxPoint x="-610" y="195" as="sourcePoint" />
            <mxPoint x="-560" y="145" as="targetPoint" />
          </mxGeometry>
        </mxCell>
      </root>
    </mxGraphModel>
  </diagram>
</mxfile>
